<svg width="26" height="27" viewBox="0 0 26 27" fill="none" xmlns="http://www.w3.org/2000/svg">
<path d="M25.5503 13.67C25.232 12.4578 24.1009 11.5636 22.7395 11.4305C19.5163 11.1149 16.2524 11.1134 13.0044 11.1149C9.75509 11.1134 6.49185 11.1149 3.26766 11.4305C1.90693 11.5639 0.776495 12.4581 0.45856 13.67C0.00543475 15.3961 0 17.2803 0 19.0576C0 20.8349 4.04923e-08 22.7188 0.453125 24.4449C0.77106 25.6568 1.90149 26.551 3.26291 26.6844C6.48641 27.0003 9.74966 27.0015 12.9986 27.0003C16.248 27.0018 19.5105 27.0003 22.7351 26.6844C24.0958 26.551 25.2269 25.6568 25.5448 24.4449C25.9976 22.7188 26 20.8349 26 19.0576C25.9997 17.28 26.0031 15.3961 25.5503 13.67ZM7.4161 15.0078H5.53431V23.7732H3.78635V15.0078H1.93886V13.572H7.4161V15.0078ZM12.1637 23.7735H10.5914V22.9442C9.96671 23.5719 9.37364 23.878 8.79586 23.878C8.2894 23.878 7.9409 23.6982 7.78363 23.3132C7.69803 23.0833 7.64504 22.7194 7.64504 22.1829V16.1723H9.21603V21.7687C9.21603 22.0915 9.21603 22.2591 9.2303 22.3044C9.268 22.5181 9.38723 22.6265 9.59783 22.6265C9.91304 22.6265 10.2425 22.4136 10.591 21.9816V16.1723H12.1634L12.1637 23.7735ZM18.1328 21.4921C18.1328 22.1951 18.0788 22.7016 17.9738 23.0237C17.7639 23.5892 17.3437 23.878 16.7187 23.878C16.1596 23.878 15.6202 23.6059 15.0948 23.0371V23.7738H13.5238V13.572H15.0948V16.9036C15.6022 16.356 16.141 16.0791 16.7187 16.0791C17.3437 16.0791 17.7643 16.3677 17.9738 16.9367C18.0795 17.2425 18.1328 17.7451 18.1328 18.4648V21.4921ZM24.0625 20.2239H20.9202V21.5713C20.9202 22.2749 21.1827 22.6262 21.7228 22.6262C22.1097 22.6262 22.3349 22.4419 22.4246 22.0739C22.4392 21.9992 22.4599 21.6931 22.4599 21.1407H24.0628V21.3417C24.0628 21.7857 24.0435 22.0915 24.0292 22.229C23.9766 22.5339 23.8529 22.8105 23.6624 23.0541C23.2272 23.6062 22.5825 23.8783 21.7619 23.8783C20.9399 23.8783 20.3142 23.619 19.8601 23.1C19.5268 22.7194 19.3556 22.1203 19.3556 21.3125V18.6503C19.3556 17.8377 19.5075 17.2434 19.8414 16.8593C20.2952 16.3391 20.9205 16.08 21.7232 16.08C22.5115 16.08 23.1365 16.3391 23.5768 16.8593C23.9059 17.2434 24.0632 17.8377 24.0632 18.6503V20.2239H24.0625Z" fill="#322B2B"/>
<path d="M21.7073 17.3193C21.1822 17.3193 20.9189 17.671 20.9189 18.3737V19.077H22.4899V18.3737C22.4896 17.671 22.227 17.3193 21.7073 17.3193Z" fill="#322B2B"/>
<path d="M15.8774 17.3193C15.6185 17.3193 15.3563 17.4265 15.0938 17.6543V22.2871C15.356 22.5176 15.6185 22.6266 15.8774 22.6266C16.3305 22.6266 16.5608 22.2871 16.5608 21.6008V18.3564C16.5608 17.671 16.3305 17.3193 15.8774 17.3193Z" fill="#322B2B"/>
<path d="M16.7565 10.4132C17.3356 10.4132 17.9382 10.1048 18.5704 9.46994V10.3078H20.1583V2.62598H18.5704V8.49717C18.2185 8.93308 17.8849 9.14866 17.5673 9.14866C17.3547 9.14866 17.2297 9.03849 17.195 8.82262C17.1757 8.77706 17.1757 8.60763 17.1757 8.28159V2.62598H15.5928V8.70024C15.5928 9.24275 15.6458 9.60989 15.7334 9.84244C15.893 10.2316 16.2453 10.4132 16.7565 10.4132Z" fill="#322B2B"/>
<path d="M5.70291 6.13322V10.3081H7.46378V6.13322L9.58199 0H7.80142L6.59999 4.04802L5.34999 0H3.49707C3.86833 0.955505 4.25454 1.91577 4.62581 2.87217C5.19068 4.30975 5.54327 5.39359 5.70291 6.13322Z" fill="#322B2B"/>
<path d="M11.9395 10.4134C12.7351 10.4134 13.3533 10.151 13.7918 9.62699C14.125 9.24258 14.2846 8.63694 14.2846 7.82049V5.13055C14.2846 4.30933 14.1253 3.70905 13.7918 3.32107C13.3533 2.79553 12.7354 2.5332 11.9395 2.5332C11.1481 2.5332 10.5302 2.79553 10.0907 3.32107C9.7534 3.70905 9.59375 4.30933 9.59375 5.13055V7.82049C9.59375 8.63694 9.7534 9.24258 10.0907 9.62699C10.5299 10.151 11.1481 10.4134 11.9395 10.4134ZM11.1817 4.85155C11.1817 4.1408 11.4277 3.78647 11.9395 3.78647C12.4514 3.78647 12.6967 4.1405 12.6967 4.85155V8.08281C12.6967 8.79356 12.4514 9.14908 11.9395 9.14908C11.4277 9.14908 11.1817 8.79356 11.1817 8.08281V4.85155Z" fill="#322B2B"/>
</svg>
