<svg width="26" height="15" viewBox="0 0 26 15" fill="none" xmlns="http://www.w3.org/2000/svg">
<path d="M25.7683 12.8755C25.6984 12.7616 25.2661 11.8476 23.1859 9.96895C21.0083 8.00175 21.3008 8.32118 23.9237 4.91971C25.5212 2.84814 26.1599 1.58306 25.96 1.04224C25.7699 0.526723 24.5949 0.662719 24.5949 0.662719L20.6881 0.684857C20.6881 0.684857 20.3989 0.646905 20.1827 0.771832C19.9731 0.895177 19.8382 1.17982 19.8382 1.17982C19.8382 1.17982 19.219 2.7833 18.3935 4.14643C16.653 7.0229 15.9558 7.17471 15.6714 6.99601C15.01 6.58012 15.1757 5.32295 15.1757 4.43107C15.1757 1.64315 15.6096 0.480863 14.329 0.180408C13.9033 0.0807826 13.5912 0.0143661 12.504 0.00329665C11.1097 -0.0109355 9.92822 0.00804069 9.26029 0.325891C8.81501 0.537792 8.47211 1.01062 8.68175 1.0375C8.94014 1.07071 9.52519 1.19089 9.83558 1.60204C10.237 2.13179 10.2224 3.32413 10.2224 3.32413C10.2224 3.32413 10.4531 6.60542 9.68445 7.01341C9.15629 7.29331 8.43311 6.72244 6.88112 4.11164C6.08643 2.7754 5.48514 1.29684 5.48514 1.29684C5.48514 1.29684 5.36976 1.02168 5.16337 0.874619C4.9131 0.695927 4.56207 0.638999 4.56207 0.638999L0.84705 0.661137C0.84705 0.661137 0.289634 0.676951 0.084869 0.912572C-0.0971444 1.12289 0.0702429 1.55618 0.0702429 1.55618C0.0702429 1.55618 2.97921 8.17728 6.2717 11.5155C9.2928 14.5754 12.7218 14.3746 12.7218 14.3746H14.2754C14.2754 14.3746 14.7451 14.324 14.984 14.0725C15.205 13.8417 15.1969 13.4084 15.1969 13.4084C15.1969 13.4084 15.166 11.3795 16.1345 11.0806C17.0885 10.7865 18.3138 13.0415 19.6123 13.9097C20.5939 14.5659 21.3398 14.422 21.3398 14.422L24.8127 14.3746C24.8127 14.3746 26.6296 14.2655 25.7683 12.8755Z" fill="#322B2B"/>
</svg>
