<svg width="178" height="133" viewBox="0 0 178 133" fill="none" xmlns="http://www.w3.org/2000/svg">
<path d="M82.42 121.668L83.0432 122.45L83.0506 122.444L82.42 121.668ZM23.952 121.668L23.3214 122.444L23.328 122.449L23.3347 122.455L23.952 121.668ZM6.656 35.188L7.59434 35.5337L7.59434 35.5337L6.656 35.188ZM23.952 11.312L23.3347 10.5252L23.3288 10.5299L23.952 11.312ZM99.716 35.188L98.7776 35.5337L98.7817 35.5445L99.716 35.188ZM99.716 97.604L98.7817 97.2475L98.7777 97.2583L99.716 97.604ZM71.892 96.288L71.0096 95.8174L71.0036 95.829L71.892 96.288ZM71.892 36.692L71.0036 37.151L71.0082 37.1599L71.013 37.1688L71.892 36.692ZM34.48 36.692L35.3591 37.1688L35.3624 37.1626L34.48 36.692ZM81.7968 120.886C73.9725 127.121 64.4858 130.256 53.28 130.256V132.256C64.8849 132.256 74.8249 128.999 83.0432 122.45L81.7968 120.886ZM53.28 130.256C42.0744 130.256 32.5218 127.121 24.5693 120.881L23.3347 122.455C31.6755 128.999 41.6749 132.256 53.28 132.256V130.256ZM24.5826 120.892C16.698 114.486 11.0404 106.612 7.59434 97.2583L5.71766 97.9497C9.29024 107.647 15.1634 115.816 23.3214 122.444L24.5826 120.892ZM7.59434 97.2583C4.13008 87.8553 2.392 77.5711 2.392 66.396H0.392C0.392 77.7809 2.16326 88.302 5.71766 97.9497L7.59434 97.2583ZM2.392 66.396C2.392 55.2209 4.13008 44.9367 7.59434 35.5337L5.71766 34.8423C2.16326 44.4899 0.392 55.0111 0.392 66.396H2.392ZM7.59434 35.5337C11.0398 26.1818 16.6953 18.3734 24.5752 12.0941L23.3288 10.5299C15.1661 17.0346 9.29087 25.1436 5.71766 34.8423L7.59434 35.5337ZM24.5693 12.0987C32.5218 5.85907 42.0744 2.72399 53.28 2.72399V0.723991C41.6749 0.723991 31.6755 3.98092 23.3347 10.5253L24.5693 12.0987ZM53.28 2.72399C64.4858 2.72399 73.9725 5.85904 81.7968 12.0941L83.0432 10.5299C74.8249 3.98094 64.8849 0.723991 53.28 0.723991V2.72399ZM81.7968 12.0941C89.6768 18.3734 95.3322 26.1818 98.7777 35.5337L100.654 34.8423C97.0811 25.1436 91.2059 17.0346 83.0432 10.5299L81.7968 12.0941ZM98.7817 35.5445C102.369 44.9445 104.168 55.2249 104.168 66.396H106.168C106.168 55.0071 104.333 44.4822 100.65 34.8315L98.7817 35.5445ZM104.168 66.396C104.168 77.5671 102.369 87.8475 98.7817 97.2475L100.65 97.9605C104.333 88.3098 106.168 77.7849 106.168 66.396H104.168ZM98.7777 97.2583C95.3316 106.612 89.674 114.486 81.7894 120.892L83.0506 122.444C91.2086 115.816 97.0818 107.647 100.654 97.9497L98.7777 97.2583ZM33.5976 96.7586C35.6739 100.652 38.3605 103.618 41.6735 105.605C44.9865 107.593 48.8679 108.568 53.28 108.568V106.568C49.1694 106.568 45.6562 105.663 42.7025 103.891C39.7488 102.118 37.2968 99.4444 35.3624 95.8174L33.5976 96.7586ZM53.28 108.568C57.6918 108.568 61.5595 107.593 64.8433 105.603C68.1275 103.613 70.7675 100.643 72.7804 96.747L71.0036 95.829C69.1311 99.453 66.7265 102.123 63.8067 103.893C60.8865 105.663 57.3909 106.568 53.28 106.568V108.568ZM72.7744 96.7586C76.8895 89.0428 78.908 78.8985 78.908 66.396H76.908C76.908 78.7095 74.9159 88.4932 71.0097 95.8174L72.7744 96.7586ZM78.908 66.396C78.908 53.8948 76.8899 43.8094 72.771 36.2152L71.013 37.1688C74.9154 44.3639 76.908 54.0812 76.908 66.396H78.908ZM72.7804 36.233C70.7675 32.3371 68.1275 29.3672 64.8433 27.3768C61.5595 25.3866 57.6918 24.412 53.28 24.412V26.412C57.3909 26.412 60.8865 27.3174 63.8067 29.0872C66.7265 30.8568 69.1311 33.5269 71.0036 37.151L72.7804 36.233ZM53.28 24.412C48.8679 24.412 44.9865 25.3867 41.6735 27.3745C38.3605 29.3623 35.6739 32.3284 33.5976 36.2214L35.3624 37.1626C37.2968 33.5356 39.7488 30.8617 42.7025 29.0895C45.6562 27.3173 49.1694 26.412 53.28 26.412V24.412ZM33.601 36.2152C29.4821 43.8094 27.464 53.8948 27.464 66.396H29.464C29.464 54.0812 31.4566 44.3639 35.359 37.1688L33.601 36.2152ZM27.464 66.396C27.464 78.8985 29.4825 89.0428 33.5976 96.7586L35.3624 95.8174C31.4561 88.4932 29.464 78.7095 29.464 66.396H27.464ZM176.442 129V130H177.442V129H176.442ZM149.746 129H148.746V130H149.746V129ZM149.746 38.008H150.746V35.563L149.033 37.3072L149.746 38.008ZM128.878 59.252L128.154 59.9419L128.867 60.6901L129.591 59.9528L128.878 59.252ZM113.65 43.272L112.941 42.5666L112.254 43.2568L112.926 43.9619L113.65 43.272ZM153.13 3.60399V2.60399H152.714L152.421 2.89856L153.13 3.60399ZM176.442 3.60399H177.442V2.60399H176.442V3.60399ZM176.442 128H149.746V130H176.442V128ZM150.746 129V38.008H148.746V129H150.746ZM149.033 37.3072L128.165 58.5512L129.591 59.9528L150.459 38.7088L149.033 37.3072ZM129.602 58.5621L114.374 42.5821L112.926 43.9619L128.154 59.9419L129.602 58.5621ZM114.359 43.9774L153.839 4.30941L152.421 2.89856L112.941 42.5666L114.359 43.9774ZM153.13 4.60399H176.442V2.60399H153.13V4.60399ZM175.442 3.60399V129H177.442V3.60399H175.442Z" fill="#322B2B" fill-opacity="0.2"/>
</svg>
