<svg width="216" height="133" viewBox="0 0 216 133" fill="none" xmlns="http://www.w3.org/2000/svg">
<path d="M82.42 121.668L83.0432 122.45L83.0506 122.444L82.42 121.668ZM23.952 121.668L23.3214 122.444L23.328 122.449L23.3347 122.455L23.952 121.668ZM6.656 35.188L7.59434 35.5337L7.59434 35.5337L6.656 35.188ZM23.952 11.312L23.3347 10.5252L23.3288 10.5299L23.952 11.312ZM99.716 35.188L98.7776 35.5337L98.7817 35.5445L99.716 35.188ZM99.716 97.604L98.7817 97.2475L98.7777 97.2583L99.716 97.604ZM71.892 96.288L71.0096 95.8174L71.0036 95.829L71.892 96.288ZM71.892 36.692L71.0036 37.151L71.0082 37.1599L71.013 37.1688L71.892 36.692ZM34.48 36.692L35.3591 37.1688L35.3624 37.1626L34.48 36.692ZM81.7968 120.886C73.9725 127.121 64.4858 130.256 53.28 130.256V132.256C64.8849 132.256 74.8249 128.999 83.0432 122.45L81.7968 120.886ZM53.28 130.256C42.0744 130.256 32.5218 127.121 24.5693 120.881L23.3347 122.455C31.6755 128.999 41.6749 132.256 53.28 132.256V130.256ZM24.5826 120.892C16.698 114.486 11.0404 106.612 7.59434 97.2583L5.71766 97.9497C9.29024 107.647 15.1634 115.816 23.3214 122.444L24.5826 120.892ZM7.59434 97.2583C4.13008 87.8553 2.392 77.5711 2.392 66.396H0.392C0.392 77.7809 2.16326 88.302 5.71766 97.9497L7.59434 97.2583ZM2.392 66.396C2.392 55.2209 4.13008 44.9367 7.59434 35.5337L5.71766 34.8423C2.16326 44.4899 0.392 55.0111 0.392 66.396H2.392ZM7.59434 35.5337C11.0398 26.1818 16.6953 18.3734 24.5752 12.0941L23.3288 10.5299C15.1661 17.0346 9.29087 25.1436 5.71766 34.8423L7.59434 35.5337ZM24.5693 12.0987C32.5218 5.85907 42.0744 2.72399 53.28 2.72399V0.723991C41.6749 0.723991 31.6755 3.98092 23.3347 10.5253L24.5693 12.0987ZM53.28 2.72399C64.4858 2.72399 73.9725 5.85904 81.7968 12.0941L83.0432 10.5299C74.8249 3.98094 64.8849 0.723991 53.28 0.723991V2.72399ZM81.7968 12.0941C89.6768 18.3734 95.3322 26.1818 98.7777 35.5337L100.654 34.8423C97.0811 25.1436 91.2059 17.0346 83.0432 10.5299L81.7968 12.0941ZM98.7817 35.5445C102.369 44.9445 104.168 55.2249 104.168 66.396H106.168C106.168 55.0071 104.333 44.4822 100.65 34.8315L98.7817 35.5445ZM104.168 66.396C104.168 77.5671 102.369 87.8475 98.7817 97.2475L100.65 97.9605C104.333 88.3098 106.168 77.7849 106.168 66.396H104.168ZM98.7777 97.2583C95.3316 106.612 89.674 114.486 81.7894 120.892L83.0506 122.444C91.2086 115.816 97.0818 107.647 100.654 97.9497L98.7777 97.2583ZM33.5976 96.7586C35.6739 100.652 38.3605 103.618 41.6735 105.605C44.9865 107.593 48.8679 108.568 53.28 108.568V106.568C49.1694 106.568 45.6562 105.663 42.7025 103.891C39.7488 102.118 37.2968 99.4444 35.3624 95.8174L33.5976 96.7586ZM53.28 108.568C57.6918 108.568 61.5595 107.593 64.8433 105.603C68.1275 103.613 70.7675 100.643 72.7804 96.747L71.0036 95.829C69.1311 99.453 66.7265 102.123 63.8067 103.893C60.8865 105.663 57.3909 106.568 53.28 106.568V108.568ZM72.7744 96.7586C76.8895 89.0428 78.908 78.8985 78.908 66.396H76.908C76.908 78.7095 74.9159 88.4932 71.0097 95.8174L72.7744 96.7586ZM78.908 66.396C78.908 53.8948 76.8899 43.8094 72.771 36.2152L71.013 37.1688C74.9154 44.3639 76.908 54.0812 76.908 66.396H78.908ZM72.7804 36.233C70.7675 32.3371 68.1275 29.3672 64.8433 27.3768C61.5595 25.3866 57.6918 24.412 53.28 24.412V26.412C57.3909 26.412 60.8865 27.3174 63.8067 29.0872C66.7265 30.8568 69.1311 33.5269 71.0036 37.151L72.7804 36.233ZM53.28 24.412C48.8679 24.412 44.9865 25.3867 41.6735 27.3745C38.3605 29.3623 35.6739 32.3284 33.5976 36.2214L35.3624 37.1626C37.2968 33.5356 39.7488 30.8617 42.7025 29.0895C45.6562 27.3173 49.1694 26.412 53.28 26.412V24.412ZM33.601 36.2152C29.4821 43.8094 27.464 53.8948 27.464 66.396H29.464C29.464 54.0812 31.4566 44.3639 35.359 37.1688L33.601 36.2152ZM27.464 66.396C27.464 78.8985 29.4825 89.0428 33.5976 96.7586L35.3624 95.8174C31.4561 88.4932 29.464 78.7095 29.464 66.396H27.464ZM214.794 129V130H215.794V129H214.794ZM120.418 129H119.418V130H120.418V129ZM120.418 108.132L119.822 107.329L119.418 107.629V108.132H120.418ZM173.622 65.644L174.319 66.3614L174.319 66.3613L173.622 65.644ZM180.766 29.736L181.35 28.924L180.766 29.736ZM132.826 39.888L132.068 40.5408L132.786 41.3731L133.547 40.5809L132.826 39.888ZM117.598 22.216L116.844 21.5595L116.275 22.2127L116.84 22.8688L117.598 22.216ZM139.218 6.98799L139.587 7.91743L139.594 7.9146L139.218 6.98799ZM200.13 12.628L199.503 13.4068L199.508 13.411L200.13 12.628ZM201.634 72.036L200.862 71.4006L200.861 71.4017L201.634 72.036ZM163.658 105.5L163.071 104.69L160.574 106.5H163.658V105.5ZM214.794 105.5H215.794V104.5H214.794V105.5ZM214.794 128H120.418V130H214.794V128ZM121.418 129V108.132H119.418V129H121.418ZM121.014 108.935C147.83 89.011 165.616 74.8114 174.319 66.3614L172.925 64.9266C164.332 73.2713 146.649 87.397 119.822 107.329L121.014 108.935ZM174.319 66.3613C183.165 57.7677 187.782 49.5645 187.782 41.768H185.782C185.782 48.7609 181.626 56.475 172.925 64.9267L174.319 66.3613ZM187.782 41.768C187.782 36.3228 185.634 32.0033 181.35 28.924L180.182 30.548C183.919 33.234 185.782 36.9359 185.782 41.768H187.782ZM181.35 28.924C177.149 25.905 172.177 24.412 166.478 24.412V26.412C171.809 26.412 176.361 27.8017 180.182 30.548L181.35 28.924ZM166.478 24.412C153.041 24.412 141.565 29.352 132.105 39.1951L133.547 40.5809C142.637 31.1227 153.595 26.412 166.478 26.412V24.412ZM133.584 39.2352L118.356 21.5632L116.84 22.8688L132.068 40.5408L133.584 39.2352ZM118.352 22.8725C124.136 16.2276 131.209 11.2438 139.587 7.91741L138.849 6.05857C130.181 9.50014 122.842 14.6683 116.844 21.5595L118.352 22.8725ZM139.594 7.9146C148.125 4.45274 156.896 2.72399 165.914 2.72399V0.723991C156.633 0.723991 147.607 2.50457 138.842 6.06138L139.594 7.9146ZM165.914 2.72399C179.518 2.72399 190.689 6.30651 199.503 13.4067L200.757 11.8492C191.523 4.41081 179.884 0.723991 165.914 0.723991V2.72399ZM199.508 13.411C208.408 20.4819 212.854 29.9013 212.854 41.768H214.854C214.854 29.32 210.151 19.3128 200.752 11.845L199.508 13.411ZM212.854 41.768C212.854 51.7607 208.899 61.6327 200.862 71.4006L202.406 72.6714C210.663 62.6366 214.854 52.3299 214.854 41.768H212.854ZM200.861 71.4017C192.919 81.0815 180.338 92.1778 163.071 104.69L164.245 106.31C181.57 93.7556 194.307 82.5425 202.407 72.6703L200.861 71.4017ZM163.658 106.5H214.794V104.5H163.658V106.5ZM213.794 105.5V129H215.794V105.5H213.794Z" fill="#322B2B" fill-opacity="0.2"/>
</svg>
