<svg width="216" height="133" viewBox="0 0 216 133" fill="none" xmlns="http://www.w3.org/2000/svg">
<path d="M82.42 121.668L83.0432 122.45L83.0506 122.444L82.42 121.668ZM23.952 121.668L23.3214 122.444L23.328 122.449L23.3347 122.455L23.952 121.668ZM6.656 35.188L7.59434 35.5337L7.59434 35.5337L6.656 35.188ZM23.952 11.312L23.3347 10.5252L23.3288 10.5299L23.952 11.312ZM99.716 35.188L98.7776 35.5337L98.7817 35.5445L99.716 35.188ZM99.716 97.604L98.7817 97.2475L98.7777 97.2583L99.716 97.604ZM71.892 96.288L71.0096 95.8174L71.0036 95.829L71.892 96.288ZM71.892 36.692L71.0036 37.151L71.0082 37.1599L71.013 37.1688L71.892 36.692ZM34.48 36.692L35.3591 37.1688L35.3624 37.1626L34.48 36.692ZM81.7968 120.886C73.9725 127.121 64.4858 130.256 53.28 130.256V132.256C64.8849 132.256 74.8249 128.999 83.0432 122.45L81.7968 120.886ZM53.28 130.256C42.0744 130.256 32.5218 127.121 24.5693 120.881L23.3347 122.455C31.6755 128.999 41.6749 132.256 53.28 132.256V130.256ZM24.5826 120.892C16.698 114.486 11.0404 106.612 7.59434 97.2583L5.71766 97.9497C9.29024 107.647 15.1634 115.816 23.3214 122.444L24.5826 120.892ZM7.59434 97.2583C4.13008 87.8553 2.392 77.5711 2.392 66.396H0.392C0.392 77.7809 2.16326 88.302 5.71766 97.9497L7.59434 97.2583ZM2.392 66.396C2.392 55.2209 4.13008 44.9367 7.59434 35.5337L5.71766 34.8423C2.16326 44.4899 0.392 55.0111 0.392 66.396H2.392ZM7.59434 35.5337C11.0398 26.1818 16.6953 18.3734 24.5752 12.0941L23.3288 10.5299C15.1661 17.0346 9.29087 25.1436 5.71766 34.8423L7.59434 35.5337ZM24.5693 12.0987C32.5218 5.85907 42.0744 2.72399 53.28 2.72399V0.723991C41.6749 0.723991 31.6755 3.98092 23.3347 10.5253L24.5693 12.0987ZM53.28 2.72399C64.4858 2.72399 73.9725 5.85904 81.7968 12.0941L83.0432 10.5299C74.8249 3.98094 64.8849 0.723991 53.28 0.723991V2.72399ZM81.7968 12.0941C89.6768 18.3734 95.3322 26.1818 98.7777 35.5337L100.654 34.8423C97.0811 25.1436 91.2059 17.0346 83.0432 10.5299L81.7968 12.0941ZM98.7817 35.5445C102.369 44.9445 104.168 55.2249 104.168 66.396H106.168C106.168 55.0071 104.333 44.4822 100.65 34.8315L98.7817 35.5445ZM104.168 66.396C104.168 77.5671 102.369 87.8475 98.7817 97.2475L100.65 97.9605C104.333 88.3098 106.168 77.7849 106.168 66.396H104.168ZM98.7777 97.2583C95.3316 106.612 89.674 114.486 81.7894 120.892L83.0506 122.444C91.2086 115.816 97.0818 107.647 100.654 97.9497L98.7777 97.2583ZM33.5976 96.7586C35.6739 100.652 38.3605 103.618 41.6735 105.605C44.9865 107.593 48.8679 108.568 53.28 108.568V106.568C49.1694 106.568 45.6562 105.663 42.7025 103.891C39.7488 102.118 37.2968 99.4444 35.3624 95.8174L33.5976 96.7586ZM53.28 108.568C57.6918 108.568 61.5595 107.593 64.8433 105.603C68.1275 103.613 70.7675 100.643 72.7804 96.747L71.0036 95.829C69.1311 99.453 66.7265 102.123 63.8067 103.893C60.8865 105.663 57.3909 106.568 53.28 106.568V108.568ZM72.7744 96.7586C76.8895 89.0428 78.908 78.8985 78.908 66.396H76.908C76.908 78.7095 74.9159 88.4932 71.0097 95.8174L72.7744 96.7586ZM78.908 66.396C78.908 53.8948 76.8899 43.8094 72.771 36.2152L71.013 37.1688C74.9154 44.3639 76.908 54.0812 76.908 66.396H78.908ZM72.7804 36.233C70.7675 32.3371 68.1275 29.3672 64.8433 27.3768C61.5595 25.3866 57.6918 24.412 53.28 24.412V26.412C57.3909 26.412 60.8865 27.3174 63.8067 29.0872C66.7265 30.8568 69.1311 33.5269 71.0036 37.151L72.7804 36.233ZM53.28 24.412C48.8679 24.412 44.9865 25.3867 41.6735 27.3745C38.3605 29.3623 35.6739 32.3284 33.5976 36.2214L35.3624 37.1626C37.2968 33.5356 39.7488 30.8617 42.7025 29.0895C45.6562 27.3173 49.1694 26.412 53.28 26.412V24.412ZM33.601 36.2152C29.4821 43.8094 27.464 53.8948 27.464 66.396H29.464C29.464 54.0812 31.4566 44.3639 35.359 37.1688L33.601 36.2152ZM27.464 66.396C27.464 78.8985 29.4825 89.0428 33.5976 96.7586L35.3624 95.8174C31.4561 88.4932 29.464 78.7095 29.464 66.396H27.464ZM135.458 125.804L135.054 126.719L135.066 126.724L135.458 125.804ZM115.342 111.14L114.553 110.525L114.064 111.153L114.566 111.771L115.342 111.14ZM129.254 93.28L129.971 92.5832L129.171 91.7593L128.465 92.6655L129.254 93.28ZM145.046 103.808L144.659 104.73L144.667 104.733L144.675 104.736L145.046 103.808ZM181.33 103.244L181.902 104.064L181.91 104.059L181.918 104.053L181.33 103.244ZM181.518 80.684L181.007 81.5439L181.018 81.5498L181.028 81.5556L181.518 80.684ZM146.738 77.488H145.738V78.593L146.838 78.483L146.738 77.488ZM146.738 53.424L146.821 52.4275L145.738 52.3372V53.424H146.738ZM178.886 29.36L178.361 30.2108L178.375 30.2198L178.39 30.2282L178.886 29.36ZM130.382 38.384L129.6 39.0076L130.283 39.8637L131.074 39.106L130.382 38.384ZM117.034 21.652L116.286 20.9885L115.728 21.618L116.252 22.2756L117.034 21.652ZM199.566 10.936L198.976 11.7432L198.981 11.7473L199.566 10.936ZM204.266 54.74L204.947 55.4722L204.956 55.4637L204.266 54.74ZM184.902 64.328L184.722 63.3444L184.801 65.3229L184.902 64.328ZM205.018 73.54L204.351 74.2848L204.359 74.2921L204.367 74.2993L205.018 73.54ZM200.694 121.104L201.294 121.904L201.301 121.899L200.694 121.104ZM164.786 130.256C153.866 130.256 144.228 128.457 135.85 124.884L135.066 126.724C143.734 130.42 153.647 132.256 164.786 132.256V130.256ZM135.862 124.889C127.455 121.18 120.888 116.38 116.118 110.509L114.566 111.771C119.572 117.932 126.416 122.908 135.054 126.719L135.862 124.889ZM116.131 111.755L130.043 93.8945L128.465 92.6655L114.553 110.525L116.131 111.755ZM128.537 93.9768C132.902 98.4702 138.282 102.052 144.659 104.73L145.433 102.886C139.277 100.3 134.129 96.8632 129.971 92.5832L128.537 93.9768ZM144.675 104.736C151.05 107.287 157.443 108.568 163.846 108.568V106.568C157.716 106.568 151.575 105.343 145.417 102.88L144.675 104.736ZM163.846 108.568C171.476 108.568 177.534 107.109 181.902 104.064L180.758 102.424C176.854 105.145 171.257 106.568 163.846 106.568V108.568ZM181.918 104.053C186.291 100.873 188.534 96.6972 188.534 91.588H186.534C186.534 96.0041 184.641 99.5992 180.742 102.435L181.918 104.053ZM188.534 91.588C188.534 86.2529 186.367 82.2641 182.008 79.8124L181.028 81.5556C184.691 83.6159 186.534 86.8964 186.534 91.588H188.534ZM182.029 79.8241C177.779 77.301 171.162 76.112 162.342 76.112V78.112C171.069 78.112 177.236 79.3043 181.007 81.5439L182.029 79.8241ZM162.342 76.112C154.456 76.112 149.204 76.2365 146.639 76.493L146.838 78.483C149.286 78.2382 154.436 78.112 162.342 78.112V76.112ZM147.738 77.488V53.424H145.738V77.488H147.738ZM146.655 54.4205C148.212 54.5503 153.469 54.612 162.342 54.612V52.612C153.418 52.612 148.272 52.5484 146.821 52.4275L146.655 54.4205ZM162.342 54.612C170.113 54.612 176.105 53.4963 180.185 51.1411C184.348 48.7378 186.466 45.0707 186.466 40.264H184.466C184.466 44.356 182.73 47.3628 179.185 49.4089C175.557 51.5031 169.987 52.612 162.342 52.612V54.612ZM186.466 40.264C186.466 35.1165 184.057 31.1632 179.382 28.4918L178.39 30.2282C182.488 32.5702 184.466 35.8862 184.466 40.264H186.466ZM179.412 28.5092C174.943 25.7495 169.166 24.412 162.154 24.412V26.412C168.929 26.412 174.306 27.7065 178.361 30.2108L179.412 28.5092ZM162.154 24.412C149.731 24.412 138.894 28.8412 129.69 37.662L131.074 39.106C139.918 30.6308 150.262 26.412 162.154 26.412V24.412ZM131.164 37.7604L117.816 21.0284L116.252 22.2756L129.6 39.0076L131.164 37.7604ZM117.782 22.3155C129.347 9.27456 145.038 2.72399 164.974 2.72399V0.723991C144.553 0.723991 128.284 7.45876 116.286 20.9885L117.782 22.3155ZM164.974 2.72399C179.51 2.72399 190.807 5.76913 198.976 11.7432L200.156 10.1288C191.53 3.82019 179.766 0.723991 164.974 0.723991V2.72399ZM198.981 11.7473C207.246 17.7029 211.35 25.6745 211.35 35.752H213.35C213.35 25.0241 208.931 16.4518 200.151 10.1247L198.981 11.7473ZM211.35 35.752C211.35 43.0016 208.765 49.0684 203.576 54.0163L204.956 55.4637C210.546 50.1342 213.35 43.5424 213.35 35.752H211.35ZM203.585 54.0078C198.341 58.8861 192.062 61.9987 184.722 63.3444L185.082 65.3116C192.782 63.9 199.413 60.6205 204.947 55.4722L203.585 54.0078ZM184.801 65.3229C191.967 66.0516 198.478 69.0237 204.351 74.2848L205.685 72.7952C199.526 67.2776 192.627 64.1084 185.003 63.3331L184.801 65.3229ZM204.367 74.2993C210.27 79.3588 213.23 86.029 213.23 94.408H215.23C215.23 85.491 212.049 78.2492 205.669 72.7807L204.367 74.2993ZM213.23 94.408C213.23 104.986 208.875 113.596 200.087 120.309L201.301 121.899C210.561 114.825 215.23 105.638 215.23 94.408H213.23ZM200.094 120.304C191.291 126.906 179.554 130.256 164.786 130.256V132.256C179.848 132.256 192.049 128.838 201.294 121.904L200.094 120.304Z" fill="#322B2B" fill-opacity="0.2"/>
</svg>
