<svg width="166" height="32" viewBox="0 0 166 32" fill="none" xmlns="http://www.w3.org/2000/svg">
<path d="M1.86367 2V17.7333C1.86367 20.2667 2.26303 22.1333 3.32799 23.6C5.72414 26.9333 10.1171 29.2 12.6463 29.8667C15.1756 29.0667 19.7017 26.9333 21.9647 23.6C23.0297 22.1333 23.429 20.2667 23.429 17.7333V2H1.86367ZM25.5589 0V17.7333C25.5589 20.8 25.0265 22.9333 23.6953 24.8C20.8998 28.8 15.7081 31.3333 12.7795 32C9.71772 31.2 4.52606 28.6667 1.86367 24.8C0.532478 22.9333 0 20.8 0 17.7333V0H25.5589Z" fill="black" fill-opacity="0.5"/>
<path d="M126.996 22.2669V7.2002H129.525L129.658 7.60019L135.782 17.3335V7.2002H138.444V22.2669H135.915L135.782 21.8669L129.658 12.1335V22.2669H126.996Z" fill="black" fill-opacity="0.5"/>
<path d="M53.9133 15.8669H47.7898V22.2669H45.1274V7.2002H47.7898V13.4669H53.9133V7.2002H56.5757V22.2669H53.9133V15.8669Z" fill="black" fill-opacity="0.5"/>
<path d="M86.5279 13.6002L83.0668 20.5335H81.2031L77.742 13.6002V22.2669H75.0796V7.2002H77.6089L77.742 7.73353L81.8687 16.1335H82.268L86.5279 7.73353L86.661 7.2002H89.1903V22.2669H86.5279V13.6002Z" fill="black" fill-opacity="0.5"/>
<path d="M161.474 22.2669H158.811V9.73353H154.418V7.2002H165.867V9.73353H161.474V22.2669Z" fill="black" fill-opacity="0.5"/>
<path d="M108.492 7.2002H105.83V22.2669H108.492V7.2002Z" fill="black" fill-opacity="0.5"/>
<path d="M140.708 22.2669H143.636L144.967 18.6669H150.425L151.756 22.2669H154.685L148.961 7.2002H146.432L140.708 22.2669ZM145.766 16.2669L147.63 10.9335H147.763L149.627 16.2669H145.766Z" fill="black" fill-opacity="0.5"/>
<path d="M58.8389 22.2669H61.7675L63.0987 18.6669H68.5566L69.8878 22.2669H72.8164L67.0923 7.2002H64.563L58.8389 22.2669ZM63.8974 16.2669L65.7611 10.9335H65.8942L67.7579 16.2669H63.8974Z" fill="black" fill-opacity="0.5"/>
<path d="M122.869 9.60026C121.804 7.86693 119.807 6.93359 117.677 6.93359C115.547 6.93359 113.551 7.86693 112.486 9.60026C111.953 10.5336 111.687 11.4669 111.687 13.2003V16.4003C111.687 18.0003 111.953 19.0669 112.619 20.0003C113.684 21.7336 115.681 22.6669 117.811 22.6669C119.94 22.6669 121.937 21.7336 123.002 20.0003C123.535 19.0669 123.934 18.0003 123.934 16.4003V13.2003C123.801 11.4669 123.535 10.5336 122.869 9.60026ZM121.138 16.6669C121.138 17.6003 120.872 18.2669 120.606 18.8003C119.94 19.7336 118.875 20.2669 117.677 20.2669C116.612 20.2669 115.414 19.7336 114.749 18.8003C114.349 18.2669 114.216 17.6003 114.216 16.6669V12.9336C114.216 12.0003 114.483 11.3336 114.749 10.8003C115.547 9.86693 116.612 9.33359 117.677 9.33359C118.742 9.33359 119.94 9.86693 120.606 10.8003C121.005 11.3336 121.138 12.0003 121.138 12.9336V16.6669Z" fill="black" fill-opacity="0.5"/>
<path d="M101.57 8.26686C100.771 7.60019 99.7064 7.2002 98.109 7.2002H92.7842V22.2669H95.4466V17.0669H98.109C99.7064 17.0669 100.771 16.6669 101.57 16.0002C102.635 15.2002 103.301 14.0002 103.301 12.1335C103.301 10.4002 102.502 9.20019 101.57 8.26686ZM100.638 12.1335C100.638 12.9335 100.372 13.6002 99.8395 14.0002C99.4402 14.2669 98.9077 14.5335 97.9758 14.5335H95.3134V9.73353H97.9758C99.0408 9.73353 99.4402 10.0002 99.8395 10.2669C100.372 10.6669 100.638 11.3335 100.638 12.1335Z" fill="black" fill-opacity="0.5"/>
<path d="M37.5395 6.93359C35.4096 6.93359 33.4128 7.86693 32.3479 9.60026C31.8154 10.5336 31.416 11.6003 31.416 13.2003V16.4003C31.416 18.0003 31.6823 19.0669 32.3479 20.0003C33.4128 21.7336 35.4096 22.6669 37.5395 22.6669C39.8025 22.6669 41.2669 22.1336 42.598 21.0669L41.2669 19.0669C40.335 19.7336 39.2701 20.1336 37.6726 20.1336C36.6077 20.1336 35.4096 19.6003 34.744 18.6669C34.3446 18.1336 34.2115 17.4669 34.2115 16.5336V12.9336C34.2115 12.0003 34.4778 11.3336 34.744 10.8003C35.4096 9.86693 36.4746 9.33359 37.5395 9.33359C38.8707 9.33359 39.8025 9.60026 40.7344 10.2669L42.1987 8.26693C41.1337 7.46693 39.6694 6.93359 37.5395 6.93359Z" fill="black" fill-opacity="0.5"/>
<path d="M8.65265 17.7333H12.2469C13.3118 17.7333 13.7112 17.2 13.7112 17.2V27.4667C15.9742 26.5333 18.7697 24.8 20.3672 22.5333C20.8996 21.7333 21.4321 20.5333 21.4321 17.8667V4H13.7112C13.7112 6 13.7112 12 13.7112 12C13.7112 12.5333 13.445 12.8 12.9125 12.8H11.5813C11.0488 12.8 10.7826 12.5333 10.7826 12V4H3.86035V12.8C3.86035 15.7333 4.12659 17.7333 8.65265 17.7333Z" fill="black" fill-opacity="0.5"/>
</svg>
