<svg width="143" height="30" viewBox="0 0 143 30" fill="none" xmlns="http://www.w3.org/2000/svg">
<g clip-path="url(#clip0)">
<path d="M11.1241 0H8.67192C8.40824 0 8.19731 0.210526 8.19731 0.473684V2.8421L4.29494 9.57891V0.473684C4.29494 0.210526 4.084 0 3.82033 0H1.3418C1.07813 0 0.867188 0.210526 0.867188 0.473684V29.5C0.867188 29.7632 1.07813 29.9737 1.3418 29.9737H3.79397C4.05764 29.9737 4.26857 29.7632 4.26857 29.5V18.7631L8.17094 12.0263V29.5C8.17094 29.7632 8.38188 29.9737 8.64555 29.9737H11.0977C11.3614 29.9737 11.5723 29.7632 11.5723 29.5V0.473684C11.5987 0.210526 11.3878 0 11.1241 0Z" fill="black" fill-opacity="0.5"/>
<path d="M89.6199 0H87.1675C86.9039 0 86.6929 0.210526 86.6929 0.473684V2.8421L82.7906 9.57891V0.473684C82.7906 0.210526 82.5796 0 82.316 0H79.8638C79.6001 0 79.3892 0.210526 79.3892 0.473684V29.5C79.3892 29.7632 79.6001 29.9737 79.8638 29.9737H82.316C82.5796 29.9737 82.7906 29.7632 82.7906 29.5V18.7631L86.6929 12.0263V29.5C86.6929 29.7632 86.9039 29.9737 87.1675 29.9737H89.6199C89.8836 29.9737 90.0944 29.7632 90.0944 29.5V0.473684C90.0944 0.210526 89.8836 0 89.6199 0Z" fill="black" fill-opacity="0.5"/>
<path d="M34.1953 13.8943C34.67 13.1048 35.0391 12.4206 35.2764 11.9996C36.3575 10.1048 37.3858 8.5522 37.3858 6.94694V2.99957C37.3594 0.89431 35.3027 -0.0267447 34.2744 -0.000428951C34.0899 -0.000428951 29.7392 -0.000428951 28.289 -0.000428951C28.0253 -0.000428951 27.8145 0.210097 27.8145 0.473256V29.4995C27.8145 29.7627 28.0253 29.9733 28.289 29.9733C29.8974 29.9733 34.96 29.9733 35.2764 29.9733C36.3047 29.9996 38.3613 29.0785 38.3877 26.9733V26.8153V23.8417V22.1838C38.3877 21.1574 37.9659 20.447 37.9659 20.447L34.1953 13.8943ZM31.2422 6.49957C31.2422 6.31536 31.4003 6.15747 31.5849 6.15747H33.7734C34.6172 6.15747 34.6963 7.02589 34.5381 7.36799C34.4326 7.57852 32.8242 10.5522 31.2422 13.4206V6.49957ZM35.0127 23.9733C34.96 24.2101 34.7754 24.6575 34.1426 24.6575H31.5849C31.4003 24.6575 31.2422 24.4996 31.2422 24.3154V18.9995C31.6641 18.2891 32.1387 17.4732 32.6133 16.6311L34.5381 19.9469C34.5381 19.9469 34.9863 20.6048 34.9863 21.4732V23.9733H35.0127Z" fill="black" fill-opacity="0.5"/>
<path d="M103.779 -0.000428951C102.381 -0.000428951 97.1345 -0.000428951 96.8973 -0.000428951C95.8689 -0.0267447 93.8121 0.89431 93.7856 2.99957V6.92062C93.7856 8.52589 94.814 10.0785 95.8954 11.9733C96.0797 12.2891 96.3699 12.789 96.6865 13.368L94.366 17.3943C94.366 17.3943 93.9444 18.1048 93.9444 19.1312C93.9444 20.0259 93.9444 27.4469 93.9444 29.5259C93.9444 29.789 94.1552 29.9996 94.4189 29.9996H96.8708C97.1345 29.9996 97.3453 29.789 97.3453 29.5259C97.3453 27.4206 97.3453 19.7627 97.3453 19.6311C97.3453 18.7627 97.7934 18.1048 97.7934 18.1048L98.5845 16.7101C99.4021 18.1311 100.193 19.4996 100.668 20.3154V29.5259C100.668 29.789 100.879 29.9996 101.142 29.9996H103.753C103.937 29.9996 104.095 29.8417 104.095 29.6575V0.341676C104.122 0.157466 103.964 -0.000428951 103.779 -0.000428951ZM100.694 14.789C98.9012 11.5785 96.7394 7.60483 96.6336 7.36799C96.4757 7.02589 96.5542 6.15747 97.3983 6.15747H100.22C100.483 6.15747 100.694 6.368 100.694 6.63115V14.789Z" fill="black" fill-opacity="0.5"/>
<path d="M64.5178 24.6574H58.8488C58.3215 24.6574 57.8996 24.2363 57.8996 23.71V7.13108C57.8996 6.60477 58.3215 6.18371 58.8488 6.18371H63.1468C63.3576 6.18371 63.5159 5.9995 63.4895 5.78897L62.6457 0.499498C62.593 0.23634 62.3821 0.0521298 62.1184 0.0521298H57.8733C56.9504 -0.000501838 54.4719 0.55213 54.4983 3.44687V26.5784C54.4719 29.4995 57.0031 30.0521 57.8996 29.9732H63.6214C63.885 29.9732 64.1223 29.789 64.1487 29.5259L64.8606 25.0521C64.887 24.8416 64.7288 24.6574 64.5178 24.6574Z" fill="black" fill-opacity="0.5"/>
<path d="M21.75 13.026C22.1719 12.3154 22.541 11.6575 22.7256 11.3417C23.8067 9.44697 24.4659 8.55225 24.4659 6.94699V3.02594C24.4131 0.920674 22.3564 -0.00037751 21.3281 0.0259382H16.1074C15.8438 0.0259382 15.6064 0.210149 15.58 0.473306L14.7363 5.76278C14.71 5.97331 14.8681 6.15752 15.0791 6.15752H20.2207C20.5634 6.15752 20.9854 6.31542 21.0908 6.86804V7.28909C21.0908 7.28909 21.0381 8.89436 20.2734 10.1312C19.7989 10.9207 18.5068 13.026 18.5068 13.026H17.2675C17.0303 13.026 16.8457 13.1838 16.7929 13.4207L16.3711 15.9733C16.3447 16.1838 16.503 16.3681 16.7138 16.3681H18.5596C19.2188 16.3681 19.5351 16.3681 19.6406 16.3681C20.1416 16.3944 21.0645 16.6576 21.0645 17.9733V19.4207C21.0645 20.7101 21.0645 22.2101 21.0645 23.6838C21.0645 24.2102 20.6426 24.6312 20.1152 24.6312H14.7363C14.5254 24.6312 14.3671 24.8154 14.3935 25.026L15.1054 29.4996C15.1582 29.7628 15.3692 29.947 15.6328 29.947H21.0645C21.9873 29.9996 24.4659 29.447 24.4395 26.5523V22.3154V17.1575C24.4659 13.2101 21.75 13.026 21.75 13.026Z" fill="black" fill-opacity="0.5"/>
<path d="M51.3609 6.1579C51.5718 6.1579 51.7301 5.97369 51.7037 5.76316L50.8599 0.473684C50.8071 0.210526 50.5963 0.0263158 50.3325 0.0263158L42.2641 0C42.0796 0 41.9214 0.157894 41.9214 0.342105V29.6316C41.9214 29.8158 42.0796 29.9737 42.2641 29.9737H50.3853C50.6489 29.9737 50.8863 29.7895 50.9126 29.5264L51.6246 25.0526C51.6509 24.8421 51.4927 24.6579 51.2817 24.6579H45.3228V16.3421H48.1177C48.3287 16.3421 48.4868 16.1579 48.4604 15.9474L48.0386 13.3947C47.9858 13.1316 47.7749 12.9474 47.5112 12.9474H45.3491V6.1579H51.3609Z" fill="black" fill-opacity="0.5"/>
<path d="M76.0142 0.473736C75.9615 0.210577 75.7505 0.0263672 75.4869 0.0263672H66.3638C66.1 0.0263672 65.8628 0.210577 65.8364 0.473736L64.9926 5.73689C64.9663 5.94742 65.1245 6.13163 65.3355 6.13163H69.2378V29.5C69.2378 29.7632 69.4487 29.9738 69.7124 29.9738H72.1646C72.4282 29.9738 72.6392 29.7632 72.6392 29.5C72.6392 29.5 72.6392 13.0527 72.6392 6.13163H76.5416C76.7524 6.13163 76.9107 5.94742 76.8843 5.73689L76.0142 0.473736Z" fill="black" fill-opacity="0.5"/>
<path d="M120.338 4.21053H116.171V0H111.953V30H142.012V0H120.364V4.21053H120.338ZM120.338 25.7631H116.171V8.36842H120.338V25.7631ZM124.846 21.6053L131.807 12.5526H124.846V8.36842H137.767V12.5263L130.805 21.5789H137.767V25.7368H124.846V21.6053Z" fill="black" fill-opacity="0.5"/>
</g>
<defs>
<clipPath id="clip0">
<rect width="142" height="30" fill="white" transform="translate(0.867188)"/>
</clipPath>
</defs>
</svg>
